<svg xmlns="http://www.w3.org/2000/svg" viewBox="0 0 64 64">
  <title>Resonate</title>
  <rect width="64" height="64" rx="14" fill="#18181b" />
  <g fill="#fff" transform="translate(10.08 16.64) scale(.32) translate(-500 -396)">
    <path d="M500 417H533C543 417 549 412 558 407L572 399C576 397 581 396 587 396H637V411H587C582 411 578 412 574 414L560 422C551 427 543 432 533 432H500Z" />
    <path d="M500 447H533C543 447 549 443 558 438L572 430C576 428 581 427 587 427H637V442H587C582 442 578 443 574 445L560 453C551 458 543 462 533 462H500Z" />
    <path d="M500 477H533C543 477 549 473 558 468L572 460C576 458 581 458 587 458H637V473H587C582 473 578 474 574 476L560 484C551 489 543 492 533 492H500Z" />
  </g>
</svg>
